<?xml version="1.0" encoding="UTF-8" standalone="no"?>
<!DOCTYPE svg PUBLIC "-//W3C//DTD SVG 1.1//EN"
 "http://www.w3.org/Graphics/SVG/1.1/DTD/svg11.dtd">
<!-- Generated by graphviz version 2.40.1 (20161225.0304)
 -->
<!-- Title: dependencies Pages: 1 -->
<svg width="1119pt" height="284pt"
 viewBox="0.00 0.00 1119.00 284.00" xmlns="http://www.w3.org/2000/svg" xmlns:xlink="http://www.w3.org/1999/xlink">
<g id="graph0" class="graph" transform="scale(1 1) rotate(0) translate(4 280)">
<title>dependencies</title>
<polygon fill="#ffffff" stroke="transparent" points="-4,4 -4,-280 1115,-280 1115,4 -4,4"/>
<text text-anchor="start" x="534.5091" y="-42.4" font-family="sans-serif" font-weight="bold" font-size="14.00" fill="#000000">Legend</text>
<polygon fill="#ffffb3" stroke="transparent" points="321.5,-10 321.5,-30 341.5,-30 341.5,-10 321.5,-10"/>
<text text-anchor="start" x="345.129" y="-15.4" font-family="sans-serif" font-size="14.00" fill="#000000"> &#160;Declarations</text>
<polygon fill="#8dd3c7" stroke="transparent" points="434.5,-10 434.5,-30 454.5,-30 454.5,-10 434.5,-10"/>
<text text-anchor="start" x="458.2251" y="-15.4" font-family="sans-serif" font-size="14.00" fill="#000000"> &#160;Module</text>
<polygon fill="#80b1d3" stroke="transparent" points="520.5,-10 520.5,-30 540.5,-30 540.5,-10 520.5,-10"/>
<text text-anchor="start" x="544.2812" y="-15.4" font-family="sans-serif" font-size="14.00" fill="#000000"> &#160;Bootstrap</text>
<polygon fill="#fdb462" stroke="transparent" points="617.5,-10 617.5,-30 637.5,-30 637.5,-10 617.5,-10"/>
<text text-anchor="start" x="641.1732" y="-15.4" font-family="sans-serif" font-size="14.00" fill="#000000"> &#160;Providers</text>
<polygon fill="#fb8072" stroke="transparent" points="713.5,-10 713.5,-30 733.5,-30 733.5,-10 713.5,-10"/>
<text text-anchor="start" x="737.2258" y="-15.4" font-family="sans-serif" font-size="14.00" fill="#000000"> &#160;Exports</text>
<g id="clust1" class="cluster">
<title>cluster_NgxCalendarTableModule</title>
<polygon fill="none" stroke="#000000" stroke-dasharray="1,5" points="8,-70 8,-268 1103,-268 1103,-70 8,-70"/>
</g>
<g id="clust2" class="cluster">
<title>cluster_NgxCalendarTableModule_declarations</title>
<polygon fill="none" stroke="#000000" points="401,-78 401,-130 1095,-130 1095,-78 401,-78"/>
</g>
<g id="clust7" class="cluster">
<title>cluster_NgxCalendarTableModule_exports</title>
<polygon fill="none" stroke="#000000" points="296,-208 296,-260 744,-260 744,-208 296,-208"/>
</g>
<g id="clust9" class="cluster">
<title>cluster_NgxCalendarTableModule_providers</title>
<polygon fill="none" stroke="#000000" points="16,-78 16,-130 393,-130 393,-78 16,-78"/>
</g>
<!-- NgxCalendarTableComponent -->
<g id="node1" class="node">
<title>NgxCalendarTableComponent</title>
<polygon fill="#ffffb3" stroke="#000000" points="1086.8431,-122 899.1569,-122 899.1569,-86 1086.8431,-86 1086.8431,-122"/>
<text text-anchor="middle" x="993" y="-99.8" font-family="Times,serif" font-size="14.00" fill="#000000">NgxCalendarTableComponent</text>
</g>
<!-- NgxCalendarTableModule -->
<g id="node4" class="node">
<title>NgxCalendarTableModule</title>
<polygon fill="#8dd3c7" stroke="#000000" points="610.0604,-187 607.0604,-191 586.0604,-191 583.0604,-187 443.9396,-187 443.9396,-151 610.0604,-151 610.0604,-187"/>
<text text-anchor="middle" x="527" y="-164.8" font-family="Times,serif" font-size="14.00" fill="#000000">NgxCalendarTableModule</text>
</g>
<!-- NgxCalendarTableComponent&#45;&gt;NgxCalendarTableModule -->
<g id="edge1" class="edge">
<title>NgxCalendarTableComponent&#45;&gt;NgxCalendarTableModule</title>
<path fill="none" stroke="#000000" d="M993,-122.2843C993,-143.3211 993,-175 993,-175 993,-175 620.0428,-175 620.0428,-175"/>
<polygon fill="#000000" stroke="#000000" points="620.0429,-171.5001 610.0428,-175 620.0428,-178.5001 620.0429,-171.5001"/>
</g>
<!-- NgxCalendarTableContentDirective -->
<g id="node2" class="node">
<title>NgxCalendarTableContentDirective</title>
<polygon fill="#ffffb3" stroke="#000000" points="881.4258,-122 662.5742,-122 662.5742,-86 881.4258,-86 881.4258,-122"/>
<text text-anchor="middle" x="772" y="-99.8" font-family="Times,serif" font-size="14.00" fill="#000000">NgxCalendarTableContentDirective</text>
</g>
<!-- NgxCalendarTableContentDirective&#45;&gt;NgxCalendarTableModule -->
<g id="edge2" class="edge">
<title>NgxCalendarTableContentDirective&#45;&gt;NgxCalendarTableModule</title>
<path fill="none" stroke="#000000" d="M699.1043,-122.0225C699.1043,-139.3734 699.1043,-163 699.1043,-163 699.1043,-163 620.2794,-163 620.2794,-163"/>
<polygon fill="#000000" stroke="#000000" points="620.2794,-159.5001 610.2794,-163 620.2794,-166.5001 620.2794,-159.5001"/>
</g>
<!-- NgxCalendarTableControlsComponent -->
<g id="node3" class="node">
<title>NgxCalendarTableControlsComponent</title>
<polygon fill="#ffffb3" stroke="#000000" points="645.066,-122 408.934,-122 408.934,-86 645.066,-86 645.066,-122"/>
<text text-anchor="middle" x="527" y="-99.8" font-family="Times,serif" font-size="14.00" fill="#000000">NgxCalendarTableControlsComponent</text>
</g>
<!-- NgxCalendarTableControlsComponent&#45;&gt;NgxCalendarTableModule -->
<g id="edge3" class="edge">
<title>NgxCalendarTableControlsComponent&#45;&gt;NgxCalendarTableModule</title>
<path fill="none" stroke="#000000" d="M527,-122.1061C527,-122.1061 527,-140.991 527,-140.991"/>
<polygon fill="#000000" stroke="#000000" points="523.5001,-140.9909 527,-150.991 530.5001,-140.991 523.5001,-140.9909"/>
</g>
<!-- NgxCalendarTableComponent  -->
<g id="node5" class="node">
<title>NgxCalendarTableComponent </title>
<polygon fill="#fb8072" stroke="#000000" points="735.8433,-252 544.1567,-252 544.1567,-216 735.8433,-216 735.8433,-252"/>
<text text-anchor="middle" x="640" y="-229.8" font-family="Times,serif" font-size="14.00" fill="#000000">NgxCalendarTableComponent </text>
</g>
<!-- NgxCalendarTableModule&#45;&gt;NgxCalendarTableComponent  -->
<g id="edge4" class="edge">
<title>NgxCalendarTableModule&#45;&gt;NgxCalendarTableComponent </title>
<path fill="none" stroke="#000000" stroke-dasharray="5,2" d="M577.1794,-187.1061C577.1794,-187.1061 577.1794,-205.991 577.1794,-205.991"/>
<polygon fill="#000000" stroke="#000000" points="573.6794,-205.9909 577.1794,-215.991 580.6794,-205.991 573.6794,-205.9909"/>
</g>
<!-- NgxCalendarTableContentDirective  -->
<g id="node6" class="node">
<title>NgxCalendarTableContentDirective </title>
<polygon fill="#fb8072" stroke="#000000" points="526.4262,-252 303.5738,-252 303.5738,-216 526.4262,-216 526.4262,-252"/>
<text text-anchor="middle" x="415" y="-229.8" font-family="Times,serif" font-size="14.00" fill="#000000">NgxCalendarTableContentDirective </text>
</g>
<!-- NgxCalendarTableModule&#45;&gt;NgxCalendarTableContentDirective  -->
<g id="edge5" class="edge">
<title>NgxCalendarTableModule&#45;&gt;NgxCalendarTableContentDirective </title>
<path fill="none" stroke="#000000" stroke-dasharray="5,2" d="M485.0914,-187.1061C485.0914,-187.1061 485.0914,-205.991 485.0914,-205.991"/>
<polygon fill="#000000" stroke="#000000" points="481.5914,-205.9909 485.0914,-215.991 488.5914,-205.991 481.5914,-205.9909"/>
</g>
<!-- DateService -->
<g id="node7" class="node">
<title>DateService</title>
<ellipse fill="#fdb462" stroke="#000000" cx="327" cy="-104" rx="58.4415" ry="18"/>
<text text-anchor="middle" x="327" y="-99.8" font-family="Times,serif" font-size="14.00" fill="#000000">DateService</text>
</g>
<!-- DateService&#45;&gt;NgxCalendarTableModule -->
<g id="edge6" class="edge">
<title>DateService&#45;&gt;NgxCalendarTableModule</title>
<path fill="none" stroke="#000000" d="M344.5037,-121.3828C344.5037,-138.7864 344.5037,-163 344.5037,-163 344.5037,-163 433.7625,-163 433.7625,-163"/>
<polygon fill="#000000" stroke="#000000" points="433.7626,-166.5001 443.7625,-163 433.7625,-159.5001 433.7626,-166.5001"/>
</g>
<!-- NgxCalendarTableService -->
<g id="node8" class="node">
<title>NgxCalendarTableService</title>
<ellipse fill="#fdb462" stroke="#000000" cx="137" cy="-104" rx="113.4219" ry="18"/>
<text text-anchor="middle" x="137" y="-99.8" font-family="Times,serif" font-size="14.00" fill="#000000">NgxCalendarTableService</text>
</g>
<!-- NgxCalendarTableService&#45;&gt;NgxCalendarTableModule -->
<g id="edge7" class="edge">
<title>NgxCalendarTableService&#45;&gt;NgxCalendarTableModule</title>
<path fill="none" stroke="#000000" d="M137,-122.2843C137,-143.3211 137,-175 137,-175 137,-175 433.8136,-175 433.8136,-175"/>
<polygon fill="#000000" stroke="#000000" points="433.8136,-178.5001 443.8136,-175 433.8135,-171.5001 433.8136,-178.5001"/>
</g>
</g>
</svg>
